<?xml version="1.0" encoding="UTF-8" standalone="no"?>
<!-- Created with Inkscape (http://www.inkscape.org/) -->

<svg
   width="1000"
   height="1000"
   viewBox="0 0 1000 1000"
   version="1.1"
   id="svg1"
   xml:space="preserve"
   sodipodi:docname="cap_fav.svg"
   inkscape:version="1.4 (86a8ad7, 2024-10-11)"
   xmlns:inkscape="http://www.inkscape.org/namespaces/inkscape"
   xmlns:sodipodi="http://sodipodi.sourceforge.net/DTD/sodipodi-0.dtd"
   xmlns="http://www.w3.org/2000/svg"
   xmlns:svg="http://www.w3.org/2000/svg"><sodipodi:namedview
     id="namedview1"
     pagecolor="#505050"
     bordercolor="#eeeeee"
     borderopacity="1"
     inkscape:showpageshadow="0"
     inkscape:pageopacity="0"
     inkscape:pagecheckerboard="0"
     inkscape:deskcolor="#505050"
     inkscape:zoom="0.82519361"
     inkscape:cx="380.51676"
     inkscape:cy="392.02921"
     inkscape:window-width="2560"
     inkscape:window-height="1369"
     inkscape:window-x="2552"
     inkscape:window-y="-8"
     inkscape:window-maximized="1"
     inkscape:current-layer="svg1" /><defs
     id="defs1" /><rect
     style="fill:#4a6784;fill-opacity:1;stroke:none;stroke-linecap:round;stroke-linejoin:round;stroke-miterlimit:20;stroke-opacity:1;paint-order:stroke fill markers"
     id="rect1"
     width="1000"
     height="1000"
     x="0"
     y="0"
     ry="226.90091" /><g
     id="layer3"><path
       id="path1"
       style="fill:none;fill-opacity:1;stroke:#ffffff;stroke-width:32;stroke-linecap:round;stroke-linejoin:round;stroke-miterlimit:20;stroke-dasharray:none;stroke-opacity:1;paint-order:stroke fill markers"
       d="M 174.61442,734.34287 C 156.1277,601.40584 329.48451,519.24632 487.02422,511.47431 c 1.72734,-0.0852 10.8109,-0.23744 12.97578,-0.2279 2.16488,-0.01 11.24844,0.14269 12.97578,0.2279 157.53971,7.77201 330.89652,89.93153 312.4098,222.86856 M 174.61442,734.343 C 214.6786,634.18256 343.62858,572.14415 485.87546,566.31455 c 2.28246,-0.0935 6.49963,-0.32128 14.12454,-0.24123 7.62491,-0.08 11.84208,0.14769 14.12454,0.24123 142.24688,5.8296 271.19686,67.86801 311.26104,168.02845 M 702.51026,281.73717 c 83.02857,114.1545 89.51565,241.748 83.97886,336.22131 M 297.48974,281.73717 c -83.02857,114.1545 -89.51565,241.748 -83.97886,336.22131 M 500,238.55048 c 4.98509,-0.0637 13.18098,0.30957 15.0359,0.30957 88,0 150.77669,25.78903 187.47436,42.87712 82.84783,38.57768 127.13116,109.10766 167.13116,165.10766 34.13452,47.78832 47.74416,91.49804 87.74416,135.49804 11.23809,12.3619 21.11841,27.54377 24,44 3.02486,17.27443 0.51685,36.66967 -8,52 -20,36 -28,72 -56,92 -26.21968,18.72834 -64,-24 -92,-36 -19.60843,-8.40361 -42.77651,2.1621 -64,0 -84.54564,-8.61291 -160.69506,-48.42917 -244.95206,-55.29111 -4.01654,-0.32711 -11.53873,-0.5064 -16.43352,-0.45838 -4.89479,-0.048 -12.41698,0.13127 -16.43352,0.45838 -84.257,6.86194 -160.40642,46.6782 -244.95206,55.29111 -21.22349,2.1621 -44.39157,-8.40361 -64,0 -28,12 -65.78032,54.72834 -92,36 -28,-20 -36,-56 -56,-92 -8.51685,-15.33033 -11.02486,-34.72557 -8,-52 2.88159,-16.45623 12.76191,-31.6381 24,-44 40,-44 53.60964,-87.70972 87.74416,-135.49804 40,-56 84.28333,-126.52998 167.13116,-165.10766 36.69767,-17.08809 99.47436,-42.87712 187.47436,-42.87712 1.85492,0 10.05081,-0.37332 15.0359,-0.30957 z" /></g></svg>
